HIERARCHY
ROOT Hips
{
	OFFSET 0.000000 0.000000 0.000000
	CHANNELS 6 Xposition Yposition Zposition Xrotation Yrotation Zrotation
	JOINT LeftUpLeg
	{
		OFFSET 0.182477 0.000000 0.000000
		CHANNELS 6 Xposition Yposition Zposition Xrotation Yrotation Zrotation
		JOINT LeftLeg
		{
			OFFSET 0.000000 -0.785290 0.000000
			CHANNELS 6 Xposition Yposition Zposition Xrotation Yrotation Zrotation
			JOINT LeftFoot
			{
				OFFSET 0.000000 -0.770934 0.000000
				CHANNELS 6 Xposition Yposition Zposition Xrotation Yrotation Zrotation
				JOINT LeftToeBase
				{
					OFFSET 0.000000 -0.076772 0.286517
					CHANNELS 6 Xposition Yposition Zposition Xrotation Yrotation Zrotation
					End Site
					{
						OFFSET 0.000000 0.000000 0.147637
					}
				}
			}
		}
	}
	JOINT RightUpLeg
	{
		OFFSET -0.182477 0.000000 0.000000
		CHANNELS 6 Xposition Yposition Zposition Xrotation Yrotation Zrotation
		JOINT RightLeg
		{
			OFFSET 0.000000 -0.785290 0.000000
			CHANNELS 6 Xposition Yposition Zposition Xrotation Yrotation Zrotation
			JOINT RightFoot
			{
				OFFSET 0.000000 -0.770934 0.000000
				CHANNELS 6 Xposition Yposition Zposition Xrotation Yrotation Zrotation
				JOINT RightToeBase
				{
					OFFSET 0.000000 -0.076772 0.286517
					CHANNELS 6 Xposition Yposition Zposition Xrotation Yrotation Zrotation
					End Site
					{
						OFFSET 0.000000 0.000000 0.147637
					}
				}
			}
		}
	}
	JOINT Spine
	{
		OFFSET 0.000000 0.001968 -0.000000
		CHANNELS 6 Xposition Yposition Zposition Xrotation Yrotation Zrotation
		JOINT Spine1
		{
			OFFSET 0.000000 0.512415 -0.000000
			CHANNELS 6 Xposition Yposition Zposition Xrotation Yrotation Zrotation
			JOINT Neck
			{
				OFFSET 0.000000 0.391343 -0.000000
				CHANNELS 6 Xposition Yposition Zposition Xrotation Yrotation Zrotation
				JOINT Head
				{
					OFFSET 0.000000 0.345358 -0.000000
					CHANNELS 6 Xposition Yposition Zposition Xrotation Yrotation Zrotation
					End Site
					{
						OFFSET 0.000000 0.226377 -0.000000
					}
				}
			}
			JOINT LeftShoulder
			{
				OFFSET 0.000000 0.391343 -0.000000
				CHANNELS 6 Xposition Yposition Zposition Xrotation Yrotation Zrotation
				JOINT LeftArm
				{
					OFFSET 0.335509 -0.000001 0.000000
					CHANNELS 6 Xposition Yposition Zposition Xrotation Yrotation Zrotation
					JOINT LeftForeArm
					{
						OFFSET 0.547209 -0.000002 0.000000
						CHANNELS 6 Xposition Yposition Zposition Xrotation Yrotation Zrotation
						JOINT LeftHand
						{
							OFFSET 0.426005 -0.000002 0.000000
							CHANNELS 6 Xposition Yposition Zposition Xrotation Yrotation Zrotation
							JOINT LeftHandThumb
							{
								OFFSET 0.000000 0.000000 0.000000
								CHANNELS 6 Xposition Yposition Zposition Xrotation Yrotation Zrotation
								End Site
								{
									OFFSET 0.000000 0.000000 0.196850
								}
							}
							JOINT L_Wrist_End
							{
								OFFSET 0.196850 -0.000000 0.000000
								CHANNELS 6 Xposition Yposition Zposition Xrotation Yrotation Zrotation
								End Site
								{
									OFFSET 0.000000 0.005000 -0.000000
								}
							}
						}
					}
				}
			}
			JOINT RightShoulder
			{
				OFFSET 0.000000 0.391343 -0.000000
				CHANNELS 6 Xposition Yposition Zposition Xrotation Yrotation Zrotation
				JOINT RightArm
				{
					OFFSET -0.335509 -0.000001 0.000000
					CHANNELS 6 Xposition Yposition Zposition Xrotation Yrotation Zrotation
					JOINT RightForeArm
					{
						OFFSET -0.547209 -0.000002 0.000000
						CHANNELS 6 Xposition Yposition Zposition Xrotation Yrotation Zrotation
						JOINT RightHand
						{
							OFFSET -0.426005 -0.000002 0.000000
							CHANNELS 6 Xposition Yposition Zposition Xrotation Yrotation Zrotation
							JOINT RightHandThumb
							{
								OFFSET 0.000000 0.000000 0.000000
								CHANNELS 6 Xposition Yposition Zposition Xrotation Yrotation Zrotation
								End Site
								{
									OFFSET 0.000000 0.000000 0.196850
								}
							}
							JOINT R_Wrist_End
							{
								OFFSET -0.269685 -0.000001 0.000000
								CHANNELS 6 Xposition Yposition Zposition Xrotation Yrotation Zrotation
								End Site
								{
									OFFSET 0.000000 0.005000 -0.000000
								}
							}
						}
					}
				}
			}
		}
	}
}
MOTION
Frames: 5
Frame Time: 0.041667
5.306755 1.647795 0.289770 -6.277813 165.818989 -3.070094 0.182477 -0.000000 -0.000000 2.171100 -2.671801 -2.442800 -0.000000 -0.785290 0.000000 29.571400 0.000000 0.000002 0.000001 -0.770934 -0.000000 -10.635998 -9.126495 1.320900 -0.000000 -0.076771 0.286517 -12.063589 0.000000 0.000001 -0.182476 -0.000000 -0.000000 -23.732599 0.269500 -0.550702 0.000001 -0.785290 0.000000 47.059600 0.000002 0.000004 0.000000 -0.770933 0.000000 -24.180400 -2.613598 -6.187500 0.000000 -0.076772 0.286517 1.391500 0.000000 -0.000001 0.000000 0.001968 -0.000000 -3.899500 0.470600 -0.081800 -0.000001 0.512415 0.000000 9.874500 -1.647700 -0.411300 0.000000 0.391344 -0.000000 -0.518200 7.238297 -7.251500 -0.000000 0.345358 -0.000000 -0.189900 8.178798 1.911500 0.000000 0.391344 -0.000000 18.616698 13.121198 -3.310503 0.335509 -0.000001 -0.000000 -19.578309 -43.906304 -73.455590 0.547210 -0.000002 -0.000000 -0.000395 -61.501803 -0.000195 0.426005 -0.000002 0.000000 -0.877099 -0.822298 -8.999303 -0.000000 0.000000 0.000000 0.000003 -0.000002 -0.000003 0.196850 -0.000001 0.000000 0.000001 -0.000001 -0.000001 0.000000 0.391344 -0.000000 15.322402 -21.357600 2.363104 -0.335510 -0.000001 0.000000 10.734290 30.046812 64.887904 -0.547210 -0.000002 -0.000000 -0.000293 55.811501 0.000194 -0.426005 -0.000002 0.000000 -30.619298 7.808995 2.055301 -0.000000 -0.000000 0.000000 -0.000002 0.000000 0.000000 -0.269685 -0.000002 0.000000 -0.000001 0.000002 -0.000000 
5.314750 1.656140 0.265270 -6.362206 166.115993 -3.227995 0.182477 0.000000 0.000000 2.831000 -2.338799 -1.952100 -0.000000 -0.785290 -0.000000 29.225000 -0.000000 0.000003 -0.000000 -0.770933 0.000000 -8.341799 -9.704093 1.217198 0.000000 -0.076771 0.286516 -13.703402 0.000000 0.000002 -0.182477 -0.000000 0.000000 -23.585101 0.272001 -0.188402 0.000000 -0.785290 0.000000 43.769799 0.000002 0.000002 0.000000 -0.770934 0.000000 -23.988299 -2.138301 -6.347298 0.000000 -0.076772 0.286516 1.521799 -0.000001 0.000000 -0.000000 0.001969 0.000000 -3.954499 0.360400 0.069500 0.000000 0.512414 0.000000 9.761300 -1.756800 -0.345700 -0.000000 0.391344 -0.000000 -0.556101 7.377100 -7.340502 -0.000000 0.345358 -0.000000 -0.073500 8.211999 2.123696 -0.000000 0.391344 -0.000000 18.454603 13.023301 -3.173603 0.335509 -0.000001 -0.000000 -19.511803 -44.656805 -73.771603 0.547210 -0.000002 0.000000 -0.000396 -63.307992 -0.000290 0.426005 -0.000001 0.000000 -1.020900 -0.356799 -9.558004 0.000000 0.000000 0.000000 -0.000001 0.000001 -0.000001 0.196850 -0.000001 0.000000 -0.000001 -0.000001 0.000000 -0.000000 0.391344 -0.000000 15.610401 -21.470298 2.124003 -0.335509 -0.000001 0.000000 11.168691 29.489010 64.953999 -0.547209 -0.000002 -0.000000 -0.000298 55.839508 0.000196 -0.426005 -0.000002 0.000000 -30.519399 7.699999 2.065901 0.000000 -0.000000 -0.000000 0.000003 -0.000000 -0.000001 -0.269684 -0.000001 -0.000000 0.000001 0.000001 -0.000002 
5.323110 1.663350 0.240930 -6.416111 166.412997 -3.444798 0.182477 0.000000 -0.000000 3.416400 -1.875099 -1.355599 -0.000000 -0.785290 -0.000000 29.098197 0.000000 0.000001 0.000000 -0.770934 0.000000 -6.300899 -10.524598 0.864400 -0.000000 -0.076772 0.286516 -14.542798 0.000001 -0.000002 -0.182476 -0.000000 -0.000000 -23.375499 0.123601 0.223198 -0.000000 -0.785290 0.000000 40.502800 0.000000 0.000003 0.000001 -0.770934 0.000000 -23.678396 -1.589300 -5.862299 0.000000 -0.076772 0.286517 0.985198 -0.000002 0.000001 0.000000 0.001969 -0.000000 -4.007100 0.273600 0.197300 0.000000 0.512415 0.000000 9.681800 -1.828300 -0.215300 -0.000000 0.391343 0.000000 -0.523001 7.464799 -7.344200 -0.000000 0.345357 0.000000 -0.085800 8.189801 2.255698 -0.000000 0.391343 0.000000 18.273900 13.071400 -2.781702 0.335510 -0.000001 -0.000000 -19.965401 -45.614008 -74.662191 0.547209 -0.000002 -0.000000 -0.000388 -64.611800 -0.000290 0.426005 -0.000001 0.000000 -1.168600 -0.318497 -9.641798 0.000000 0.000000 -0.000000 -0.000001 -0.000001 0.000002 0.196850 -0.000001 0.000000 -0.000002 -0.000000 0.000003 -0.000000 0.391343 0.000000 15.667003 -21.497498 1.745304 -0.335509 -0.000001 0.000000 11.733194 28.796603 65.136502 -0.547209 -0.000002 -0.000000 -0.000296 55.944502 0.000192 -0.426005 -0.000002 0.000000 -30.240601 7.336497 2.237298 0.000000 0.000000 -0.000000 0.000001 0.000001 -0.000001 -0.269684 -0.000001 -0.000000 0.000002 0.000000 -0.000002 
5.330635 1.669195 0.216480 -6.494110 166.693499 -3.550804 0.182476 0.000000 -0.000000 3.874300 -1.678602 -0.962299 0.000000 -0.785290 0.000000 29.182202 0.000000 0.000003 -0.000000 -0.770934 0.000000 -4.712194 -10.988397 -0.020200 -0.000000 -0.076772 0.286517 -14.904198 0.000002 0.000000 -0.182477 -0.000000 -0.000000 -23.208202 -0.238600 0.442898 0.000000 -0.785290 0.000000 37.368105 0.000001 0.000003 0.000000 -0.770933 0.000000 -23.520004 -0.607199 -5.165702 0.000000 -0.076772 0.286516 0.617900 -0.000001 0.000002 -0.000000 0.001968 -0.000000 -3.995501 0.212600 0.260800 0.000000 0.512415 -0.000000 9.550701 -1.872001 -0.101799 -0.000000 0.391344 -0.000000 -0.802200 7.702498 -7.276500 0.000000 0.345358 -0.000000 0.313800 8.045201 2.307398 -0.000000 0.391344 -0.000000 18.016902 13.153700 -2.476503 0.335509 -0.000001 -0.000000 -20.227409 -46.569411 -75.424597 0.547209 -0.000002 -0.000000 -0.000490 -66.112502 -0.000291 0.426005 -0.000002 -0.000000 -1.528400 0.017202 -9.833402 0.000000 0.000000 0.000000 -0.000001 0.000003 0.000003 0.196850 -0.000000 0.000000 -0.000002 0.000004 0.000004 -0.000000 0.391344 -0.000000 15.689402 -21.247699 1.578904 -0.335509 -0.000001 -0.000000 12.672597 27.766905 64.974203 -0.547209 -0.000001 0.000000 -0.000296 56.460102 0.000192 -0.426005 -0.000001 0.000000 -30.003996 7.153801 2.110300 0.000000 0.000000 -0.000000 -0.000000 0.000001 -0.000000 -0.269685 -0.000001 -0.000000 -0.000003 0.000000 -0.000001 
5.339885 1.674040 0.191580 -6.451409 166.993795 -3.867997 0.182477 -0.000000 0.000000 4.411899 -1.299501 -0.259399 -0.000000 -0.785290 0.000000 29.409299 -0.000000 0.000002 0.000000 -0.770934 0.000000 -3.441600 -11.593392 -1.306301 0.000000 -0.076772 0.286517 -15.175697 0.000004 0.000001 -0.182476 0.000000 0.000000 -22.787400 -0.588800 0.972998 0.000000 -0.785290 0.000000 34.203299 -0.000000 0.000003 0.000000 -0.770934 -0.000000 -23.333096 0.053902 -4.751098 -0.000001 -0.076772 0.286517 -0.102900 0.000000 -0.000000 0.000000 0.001968 0.000000 -4.119901 0.076000 0.400000 -0.000000 0.512414 -0.000000 9.825999 -1.983798 0.081601 -0.000001 0.391344 -0.000000 -1.103100 8.041998 -7.292002 0.000000 0.345358 0.000000 0.435300 7.927999 2.478700 -0.000001 0.391344 -0.000000 17.815500 13.365101 -2.288002 0.335508 -0.000001 -0.000000 -20.635205 -47.539315 -76.002500 0.547210 -0.000002 -0.000000 -0.000492 -67.600097 -0.000290 0.426005 -0.000002 -0.000000 -1.981300 0.119901 -10.039502 -0.000000 -0.000000 0.000000 0.000001 -0.000001 0.000001 0.196850 -0.000001 0.000000 0.000000 -0.000003 -0.000001 -0.000001 0.391344 -0.000000 15.300298 -21.141901 1.120304 -0.335509 -0.000001 0.000000 13.462892 27.135606 65.098799 -0.547209 -0.000002 0.000000 -0.000295 56.668799 0.000197 -0.426005 -0.000001 0.000000 -29.684501 6.856602 2.254099 0.000000 -0.000000 -0.000000 0.000001 0.000003 -0.000000 -0.269684 -0.000001 0.000000 0.000001 0.000000 -0.000000 
